<svg xmlns="http://www.w3.org/2000/svg" viewBox="0 0 47.905 47.905">
  <path id="Contact-Icon" d="M36.452,11.9A23.952,23.952,0,1,0,60.4,35.852,23.961,23.961,0,0,0,36.452,11.9ZM50.537,47.182a9.555,9.555,0,0,1-2.659,3.737,3.838,3.838,0,0,1-4,.862,25.742,25.742,0,0,1-9.773-6.108c-5.677-5.82-10.2-12.144-12-17.821A6.175,6.175,0,0,1,23.59,21.84a7.177,7.177,0,0,1,4.455-2.108,1.676,1.676,0,0,1,1.365.91l2.946,5.629a2.6,2.6,0,0,1-.575,3.162,3.237,3.237,0,0,0-1.365,2.18,3.233,3.233,0,0,0,.934,1.533l6.635,7.593.934.982c.838.623,1.6.719,2.252,0l.766-.91a2.157,2.157,0,0,1,1.988-.6c1.509.455,3.593,2.18,6.108,3.593C51.231,44.763,51.159,45.936,50.537,47.182Z" transform="translate(-12.5 -11.9)"/>
</svg>
