<?xml version="1.0" encoding="utf-8"?>
<!-- Generator: Adobe Illustrator 22.1.0, SVG Export Plug-In . SVG Version: 6.00 Build 0)  -->
<svg version="1.1" id="Layer_1" xmlns="http://www.w3.org/2000/svg" xmlns:xlink="http://www.w3.org/1999/xlink" x="0px" y="0px"
	 viewBox="0 0 242 241" style="enable-background:new 0 0 242 241;" xml:space="preserve">
<style type="text/css">
	.Drop_x0020_Shadow{fill:none;}
	.Outer_x0020_Glow_x0020_5_x0020_pt{fill:none;}
	.Blue_x0020_Neon{fill:none;stroke:#8AACDA;stroke-width:7;stroke-linecap:round;stroke-linejoin:round;}
	.Chrome_x0020_Highlight{fill:url(#SVGID_1_);stroke:#FFFFFF;stroke-width:0.3629;stroke-miterlimit:1;}
	.Jive_GS{fill:#FFDD00;}
	.Alyssa_GS{fill:#A6D0E4;}
	.st0{stroke:#000000;stroke-width:0.5;stroke-miterlimit:10;}
</style>
<linearGradient id="SVGID_1_" gradientUnits="userSpaceOnUse" x1="-562" y1="-263" x2="-562" y2="-264">
	<stop  offset="0" style="stop-color:#656565"/>
	<stop  offset="0.618" style="stop-color:#1B1B1B"/>
	<stop  offset="0.6292" style="stop-color:#545454"/>
	<stop  offset="0.9831" style="stop-color:#3E3E3E"/>
</linearGradient>
<g>
	<path class="st0" d="M121-0.3C54.4-0.3,0.4,53.7,0.4,120.3s54,120.6,120.6,120.6s120.6-54,120.6-120.6S187.6-0.3,121-0.3z
		 M121,227.2c-59.5,0-107.7-48.2-107.7-107.7C13.3,60.1,61.5,11.9,121,11.9s107.7,48.2,107.7,107.7C228.7,179,180.5,227.2,121,227.2
		z"/>
	<path class="st0" d="M121,26.5c-51.6,0-93.5,41.9-93.5,93.5s41.9,93.5,93.5,93.5s93.5-41.9,93.5-93.5S172.6,26.5,121,26.5z
		 M150.2,118.7h-19.8l1.1,71.5h-30l-0.7-70.7h-17V98.5h17l0.4-31.2c1.9-12.6,11.2-19.3,25-20.4h30l-1.1,26.5h-16.2
		c-6.5,0-8.5,2.8-8.5,8.1v16.6l27.8-0.2L150.2,118.7z"/>
</g>
</svg>
