<svg xmlns="http://www.w3.org/2000/svg" viewBox="0 0 47.905 47.905">
  <g id="OurWork-Icon" transform="translate(-9.7 -14.3)">
    <path id="Path_7" fill="#000" data-name="Path 7" d="M91.422,37.547a43.8,43.8,0,0,0-6.994-.287c-2.922,0-5.749-.1-6.755.24-.5.168-1.126.359-1.174,1.006.335,2.4,3.5,3.689,7.928,4.168,4.1,0,7.809-1.844,8.024-4.168A1.287,1.287,0,0,0,91.422,37.547Z" transform="translate(-50.8 -17.451)"/>
    <path id="Path_8" data-name="Path 8" d="M33.652,14.3A23.952,23.952,0,1,0,57.6,38.252,23.961,23.961,0,0,0,33.652,14.3Zm3.329,37.294c-1.222,4.479-2.275,6.683-3.21,7.258-.431,0-.743-.407-1.006-1.006A24.179,24.179,0,0,1,30.9,53.295a11.686,11.686,0,0,1-.838-4.719,10.078,10.078,0,0,1,.335-3.545l1.677-8.767c.24-1.269.743-2.108,1.677-2.2,1.006,0,1.509,1.509,1.677,2.707l1.509,8.1A13.52,13.52,0,0,1,36.982,51.594ZM30.754,30.133v-.79a1.544,1.544,0,0,1,1.533-1.533h2.826a1.544,1.544,0,0,1,1.533,1.533v.79a.9.9,0,0,1-.024.24c0,.1.024.192.024.287a2.957,2.957,0,0,1-5.892,0,1.166,1.166,0,0,1,.024-.287A.738.738,0,0,1,30.754,30.133Zm13.485-7.4-.838,2.2L42.4,26.971l-1.868,3.21a26.711,26.711,0,0,0-4.216-3.545A5.582,5.582,0,0,0,33.6,25.462c-1.892.383-4.264,2.419-6.755,4.719l-2.683-4.743L24,25.1a10.124,10.124,0,0,1-.838-2.874,4.139,4.139,0,0,1,1.174-2.371,4.209,4.209,0,0,1,2.539-1.174H40.551a4.586,4.586,0,0,1,2.539,1.174A3.672,3.672,0,0,1,44.239,22.731Z" transform="translate(0 0)"/>
  </g>
</svg>
