<?xml version="1.0" encoding="utf-8"?>
<!-- Generator: Adobe Illustrator 22.1.0, SVG Export Plug-In . SVG Version: 6.00 Build 0)  -->
<svg version="1.1" id="Layer_1" xmlns="http://www.w3.org/2000/svg" xmlns:xlink="http://www.w3.org/1999/xlink" x="0px" y="0px"
	 viewBox="0 0 219 228" style="enable-background:new 0 0 219 228;" xml:space="preserve">
<style type="text/css">
	.Drop_x0020_Shadow{fill:none;}
	.Outer_x0020_Glow_x0020_5_x0020_pt{fill:none;}
	.Blue_x0020_Neon{fill:none;stroke:#8AACDA;stroke-width:7;stroke-linecap:round;stroke-linejoin:round;}
	.Chrome_x0020_Highlight{fill:url(#SVGID_1_);stroke:#FFFFFF;stroke-width:0.3629;stroke-miterlimit:1;}
	.Jive_GS{fill:#FFDD00;}
	.Alyssa_GS{fill:#A6D0E4;}
</style>
<linearGradient id="SVGID_1_" gradientUnits="userSpaceOnUse" x1="-574" y1="-269" x2="-574" y2="-270">
	<stop  offset="0" style="stop-color:#656565"/>
	<stop  offset="0.618" style="stop-color:#1B1B1B"/>
	<stop  offset="0.6292" style="stop-color:#545454"/>
	<stop  offset="0.9831" style="stop-color:#3E3E3E"/>
</linearGradient>
<g>
	<path d="M138.8,38.5c-7.2-1.4-18.4-1.2-29.2-1.2c-12.2,0-24-0.4-28.2,1c-2.1,0.7-4.7,1.5-4.9,4.2c1.4,10,14.6,15.4,33.1,17.4
		c17.1,0,32.6-7.7,33.5-17.4C142.5,40.5,141.6,39.4,138.8,38.5z"/>
	<path d="M109.7,14.3c-55.2,0-100,44.8-100,100s44.8,100,100,100s100-44.8,100-100S165,14.3,109.7,14.3z M123.6,170
		c-5.1,18.7-9.5,27.9-13.4,30.3c-1.8,0-3.1-1.7-4.2-4.2c-2.9-5.2-5.5-11.6-7.8-19c-2.4-5.7-3.6-12.3-3.5-19.7
		c-0.5-4.8,0.1-9.7,1.4-14.8l7-36.6c1-5.3,3.1-8.8,7-9.2c4.2,0,6.3,6.3,7,11.3l6.3,33.8C125.7,150.1,126,159.3,123.6,170z
		 M97.6,80.4v-3.3c0-3.5,2.9-6.4,6.4-6.4h11.8c3.5,0,6.4,2.9,6.4,6.4v3.3c0,0.3,0,0.6-0.1,1c0,0.4,0.1,0.8,0.1,1.2
		c0,6.2-5.5,11.3-12.3,11.3s-12.3-5-12.3-11.3c0-0.4,0-0.8,0.1-1.2C97.6,81.1,97.6,80.8,97.6,80.4z M153.9,49.5l-3.5,9.2l-4.2,8.5
		l-7.8,13.4c-5.8-5.8-11.6-10.9-17.6-14.8c-3.8-2.8-7.5-4.5-11.3-4.9c-7.9,1.6-17.8,10.1-28.2,19.7L70.1,60.8l-0.7-1.4
		c-2-5-3.4-9.2-3.5-12c0.5-3.7,2.1-7,4.9-9.9c2.3-2.6,5.9-4.1,10.6-4.9h57.1c3.8,0.5,7.4,2,10.6,4.9C152.5,41,154.2,45,153.9,49.5z"
		/>
</g>
</svg>
